<svg width="50" height="34" viewBox="0 0 50 34" fill="none" xmlns="http://www.w3.org/2000/svg">
<g clip-path="url(#clip0_421_34)">
<path d="M15.4225 3.80162H30.8498C31.2551 3.80162 31.5836 3.48675 31.5836 3.09832C31.5836 2.70989 31.2551 2.39502 30.8498 2.39502H15.4225C15.0171 2.39502 14.6885 2.70989 14.6885 3.09832C14.6885 3.48675 15.0171 3.80162 15.4225 3.80162Z" fill="black"/>
<path d="M1.62462 10.6782H17.0518C17.4572 10.6782 17.7858 10.3634 17.7858 9.97493C17.7858 9.5865 17.4572 9.27173 17.0518 9.27173H1.62462C1.21924 9.27173 0.890625 9.5865 0.890625 9.97493C0.890625 10.3634 1.21924 10.6782 1.62462 10.6782Z" fill="black"/>
<path d="M5.7666 17.9141C5.7666 18.3026 6.09521 18.6175 6.50059 18.6175H21.9278C22.3332 18.6175 22.6618 18.3026 22.6618 17.9141C22.6618 17.5257 22.3332 17.2109 21.9278 17.2109H6.50059C6.09521 17.2109 5.7666 17.5257 5.7666 17.9141Z" fill="black"/>
<path d="M14.5954 26.0879H0.733993C0.328611 26.0879 0 26.4027 0 26.7911C0 27.1795 0.328611 27.4944 0.733993 27.4944H14.5954C15.0008 27.4944 15.3294 27.1795 15.3294 26.7911C15.3294 26.4027 15.0008 26.0879 14.5954 26.0879Z" fill="black"/>
<path d="M39.537 8.21118C41.751 8.21118 43.5458 6.49119 43.5458 4.3697C43.5458 2.24822 41.7509 0.52832 39.537 0.52832C37.3225 0.52832 35.5273 2.24831 35.5273 4.3697C35.5272 6.49119 37.3224 8.21118 39.537 8.21118Z" fill="black"/>
<path d="M46.1312 7.10504C43.8292 10.1947 40.7467 10.5525 37.4296 8.66563C37.2038 8.53737 36.202 8.00849 35.9802 7.88219C30.644 4.84684 25.3141 6.03717 21.7396 10.8335C20.2207 12.8734 23.7337 14.8071 25.2356 12.7908C27.0825 10.3128 29.4308 9.5957 31.9991 10.3806C30.6841 12.5678 29.5343 14.7417 27.912 17.8303C26.2892 20.9189 22.7064 23.3854 19.2638 21.4563C16.7797 20.0651 14.5396 23.4845 17.0162 24.8714C21.7161 27.5034 27.227 25.8872 30.0403 22.4658C30.1378 22.5158 30.241 22.5609 30.3541 22.5988C32.6523 23.3661 35.665 25.4087 36.583 26.1326C37.5006 26.8565 39.0774 30.5444 40.0137 32.3974C41.1496 34.6458 44.8179 33.0082 43.6778 30.7503C42.6165 28.6479 40.8349 24.452 39.4453 23.3904C38.3307 22.539 36.1666 20.9545 34.3312 20.0555C35.5729 17.7509 36.8659 15.4711 38.2269 13.2306C42.5655 14.5044 46.6893 13.004 49.6263 9.06192C51.1465 7.02225 47.6343 5.08864 46.1312 7.10504Z" fill="black"/>
</g>
<defs>
<clipPath id="clip0_421_34">
<rect width="50" height="34" fill="white"/>
</clipPath>
</defs>
</svg>
