<svg width="141" height="141" viewBox="0 0 141 141" fill="none" xmlns="http://www.w3.org/2000/svg">
<path d="M117.5 53.7144V33.5715H107.429V53.7144H33.5718V33.5715H23.4999V53.7144H0V107.429H141V53.7144H117.5ZM130.929 97.3572H10.0713V63.7857H130.928L130.929 97.3572Z" fill="black"/>
<path d="M23.3701 73.9893V77.1276H27.1556V87.0984H30.7558V77.1276H34.5229V73.9893H23.3701Z" fill="black"/>
<path d="M44.7517 73.9893V78.8265H40.3573V73.9893H36.7568V87.0984H40.3573V81.9654H44.7517V87.0984H48.3522V73.9893H44.7517Z" fill="black"/>
<path d="M55.1298 73.988H51.5293V87.0977H55.1298V73.988Z" fill="black"/>
<path d="M67.8316 81.5219C67.6465 81.0912 67.3824 80.7249 67.0376 80.4233C66.6928 80.1218 66.2776 79.8599 65.7912 79.6385C65.3054 79.4168 64.7607 79.2138 64.1573 79.029C63.7756 78.9062 63.4342 78.8016 63.1323 78.7151C62.8308 78.6292 62.5758 78.54 62.3665 78.4474C62.1566 78.3552 61.9972 78.2533 61.8865 78.1428C61.7757 78.0321 61.7198 77.8906 61.7198 77.7182C61.7198 77.4847 61.8149 77.3183 62.0065 77.2197C62.1965 77.1214 62.4524 77.0721 62.7724 77.0721C63.1665 77.0721 63.5696 77.1368 63.9822 77.2663C64.3942 77.3954 64.767 77.534 65.0989 77.6818C65.493 77.8545 65.8747 78.0511 66.2437 78.2728L67.795 75.3C67.4992 75.1524 67.1668 74.9951 66.7975 74.8293C66.4282 74.6633 66.0311 74.5093 65.6067 74.3678C65.1818 74.2265 64.742 74.1092 64.2859 74.0169C63.831 73.9247 63.3628 73.8784 62.8825 73.8784C62.2301 73.8784 61.6119 73.9737 61.027 74.1648C60.442 74.3559 59.9221 74.6355 59.4671 75.0048C59.0117 75.3741 58.6514 75.8356 58.3865 76.3897C58.1216 76.9435 57.9897 77.5838 57.9897 78.31C57.9897 78.79 58.0538 79.2147 58.183 79.584C58.313 79.9533 58.5126 80.2826 58.7836 80.5715C59.0538 80.8609 59.3986 81.1195 59.8177 81.347C60.236 81.575 60.7342 81.7871 61.3134 81.984C61.7069 82.1195 62.0792 82.2365 62.4301 82.3348C62.7809 82.4334 63.0918 82.532 63.3623 82.6303C63.6333 82.7289 63.8453 82.8424 63.9995 82.9721C64.1529 83.1012 64.2306 83.2585 64.2306 83.4427C64.2311 83.6154 64.154 83.7539 64.0006 83.8583C63.8464 83.9629 63.5727 84.015 63.1791 84.015C62.6617 84.015 62.1541 83.9412 61.656 83.7933C61.1569 83.6457 60.7114 83.4794 60.317 83.2948C59.8486 83.0858 59.4 82.8457 58.9687 82.5747L57.418 85.7321C57.8115 85.9661 58.2395 86.1752 58.701 86.3599C59.1626 86.5447 59.6426 86.7047 60.141 86.84C60.6398 86.9754 61.1413 87.0801 61.6458 87.1539C62.1506 87.2277 62.6432 87.2646 63.123 87.2646C63.7263 87.2646 64.3261 87.1938 64.9235 87.052C65.52 86.9107 66.0559 86.6799 66.5298 86.3594C67.0032 86.0394 67.3849 85.6114 67.6746 85.0763C67.9638 84.541 68.1081 83.8795 68.1081 83.0913C68.1081 82.4758 68.0167 81.9529 67.8316 81.5219Z" fill="black"/>
<path d="M89.7488 73.9893L86.9233 82.981L85.9817 80.2486L88.1421 73.9893H84.8369L83.6736 78.0328L82.5288 73.9893H79.2239L81.3474 80.2486L80.4422 82.981L77.5991 73.9893H73.7031L78.8359 87.0984H81.8271L83.6736 82.4085L85.5383 87.0984H88.5296L93.6632 73.9893H89.7488Z" fill="black"/>
<path d="M101.086 73.9888H97.7987L93.2383 87.0985H96.9125L97.6878 84.5318H101.178L101.972 87.0985H105.627L101.086 73.9888ZM98.2234 82.1315L99.4423 78.0695L100.606 82.1315H98.2234Z" fill="black"/>
<path d="M113.716 73.9893L111.315 79.6573L108.97 73.9893H105.074L109.524 82.7224V87.0984H113.106V82.7596L117.63 73.9893H113.716Z" fill="black"/>
</svg>
